<?xml version="1.0" encoding="UTF-8"?>
<svg id="a" data-name="Layer_1" xmlns="http://www.w3.org/2000/svg" width="800" height="800" viewBox="0 0 800 800">
  <path d="M766.67,400c0,202.5-164.16,366.67-366.67,366.67S33.33,602.5,33.33,400,197.5,33.33,400,33.33c69.43-.23,137.47,19.43,196.07,56.67l47.03-47.03c13.02-13.02,34.12-13.01,47.14,0,6.28,6.28,9.79,14.81,9.76,23.69v133.33c0,18.41-14.92,33.33-33.33,33.33h-133.33c-18.41,0-33.33-14.93-33.33-33.34,0-8.84,3.51-17.31,9.76-23.56l37.57-37.57c-44.89-25.56-95.68-38.96-147.33-38.87-165.69,0-300,134.31-300,300s134.31,300,300,300,300-134.31,300-300c0-18.41,14.92-33.33,33.33-33.33s33.33,14.92,33.33,33.33Z" fill="#fff"/>
</svg>